<mxfile host="Electron" modified="2024-06-26T02:30:25.016Z" agent="Mozilla/5.0 (Windows NT 10.0; Win64; x64) AppleWebKit/537.36 (KHTML, like Gecko) draw.io/24.2.5 Chrome/120.0.6099.109 Electron/28.1.0 Safari/537.36" etag="qUbsMEdAEYKNHT2uFWja" version="24.2.5" type="device">
  <diagram name="Page-1" id="8AhAU2WFCciUL0Arpv4d">
    <mxGraphModel dx="1211" dy="1491" grid="1" gridSize="10" guides="1" tooltips="1" connect="1" arrows="1" fold="1" page="1" pageScale="1" pageWidth="3300" pageHeight="4681" math="0" shadow="0">
      <root>
        <mxCell id="0" />
        <mxCell id="1" parent="0" />
        <mxCell id="bCVefZA46M03gYBTneSI-11" style="edgeStyle=orthogonalEdgeStyle;rounded=0;orthogonalLoop=1;jettySize=auto;html=1;exitX=0.5;exitY=1;exitDx=0;exitDy=0;entryX=0.5;entryY=0;entryDx=0;entryDy=0;strokeColor=#FFFFFF;" parent="1" source="bCVefZA46M03gYBTneSI-1" target="bCVefZA46M03gYBTneSI-3" edge="1">
          <mxGeometry relative="1" as="geometry" />
        </mxCell>
        <mxCell id="bCVefZA46M03gYBTneSI-1" value="ランダムでスロット生成" style="rounded=0;whiteSpace=wrap;html=1;fillColor=none;strokeColor=#FFFFFF;" parent="1" vertex="1">
          <mxGeometry x="160" y="160" width="200" height="60" as="geometry" />
        </mxCell>
        <mxCell id="bCVefZA46M03gYBTneSI-9" style="edgeStyle=orthogonalEdgeStyle;rounded=0;orthogonalLoop=1;jettySize=auto;html=1;exitX=1;exitY=0.5;exitDx=0;exitDy=0;entryX=0;entryY=0.5;entryDx=0;entryDy=0;strokeColor=#FFFFFF;" parent="1" source="bCVefZA46M03gYBTneSI-2" target="bCVefZA46M03gYBTneSI-7" edge="1">
          <mxGeometry relative="1" as="geometry" />
        </mxCell>
        <mxCell id="bCVefZA46M03gYBTneSI-13" style="edgeStyle=orthogonalEdgeStyle;rounded=0;orthogonalLoop=1;jettySize=auto;html=1;exitX=0.5;exitY=1;exitDx=0;exitDy=0;entryX=0.5;entryY=0;entryDx=0;entryDy=0;strokeColor=#FFFFFF;" parent="1" source="bCVefZA46M03gYBTneSI-2" target="bCVefZA46M03gYBTneSI-6" edge="1">
          <mxGeometry relative="1" as="geometry" />
        </mxCell>
        <mxCell id="bCVefZA46M03gYBTneSI-2" value="最小のスロット数と&lt;div&gt;同じ数のスロットがある&lt;/div&gt;" style="rhombus;whiteSpace=wrap;html=1;fillColor=none;strokeColor=#FFFFFF;" parent="1" vertex="1">
          <mxGeometry x="160" y="390" width="200" height="80" as="geometry" />
        </mxCell>
        <mxCell id="bCVefZA46M03gYBTneSI-12" style="edgeStyle=orthogonalEdgeStyle;rounded=0;orthogonalLoop=1;jettySize=auto;html=1;exitX=0.5;exitY=1;exitDx=0;exitDy=0;entryX=0.5;entryY=0;entryDx=0;entryDy=0;strokeColor=#FFFFFF;" parent="1" source="bCVefZA46M03gYBTneSI-3" target="bCVefZA46M03gYBTneSI-2" edge="1">
          <mxGeometry relative="1" as="geometry" />
        </mxCell>
        <mxCell id="bCVefZA46M03gYBTneSI-3" value="スロット順にユーザーをソート" style="rounded=0;whiteSpace=wrap;html=1;fillColor=none;strokeColor=#FFFFFF;" parent="1" vertex="1">
          <mxGeometry x="160" y="280" width="200" height="60" as="geometry" />
        </mxCell>
        <mxCell id="bCVefZA46M03gYBTneSI-15" style="edgeStyle=orthogonalEdgeStyle;rounded=0;orthogonalLoop=1;jettySize=auto;html=1;exitX=0.5;exitY=1;exitDx=0;exitDy=0;strokeColor=#FFFFFF;" parent="1" source="bCVefZA46M03gYBTneSI-4" edge="1">
          <mxGeometry relative="1" as="geometry">
            <mxPoint x="260" y="840" as="targetPoint" />
          </mxGeometry>
        </mxCell>
        <mxCell id="bCVefZA46M03gYBTneSI-4" value="user&lt;div&gt;送信成功回数+=1&lt;/div&gt;&lt;div&gt;送信済み総データ量 += 1500&lt;/div&gt;&lt;div&gt;CWをリセット&lt;/div&gt;" style="rounded=0;whiteSpace=wrap;html=1;fillColor=none;strokeColor=#FFFFFF;" parent="1" vertex="1">
          <mxGeometry x="160" y="630" width="200" height="60" as="geometry" />
        </mxCell>
        <mxCell id="bCVefZA46M03gYBTneSI-14" style="edgeStyle=orthogonalEdgeStyle;rounded=0;orthogonalLoop=1;jettySize=auto;html=1;exitX=0.5;exitY=1;exitDx=0;exitDy=0;entryX=0.5;entryY=0;entryDx=0;entryDy=0;strokeColor=#FFFFFF;" parent="1" source="bCVefZA46M03gYBTneSI-6" target="bCVefZA46M03gYBTneSI-4" edge="1">
          <mxGeometry relative="1" as="geometry" />
        </mxCell>
        <mxCell id="bCVefZA46M03gYBTneSI-6" value="スロットタイム * スロット数&lt;br&gt;1500[Mbyte] / trans_rate(送信時間)&lt;br&gt;をcurrent_timeに加算" style="rounded=0;whiteSpace=wrap;html=1;fillColor=none;strokeColor=#FFFFFF;" parent="1" vertex="1">
          <mxGeometry x="160" y="520" width="200" height="60" as="geometry" />
        </mxCell>
        <mxCell id="bCVefZA46M03gYBTneSI-10" style="edgeStyle=orthogonalEdgeStyle;rounded=0;orthogonalLoop=1;jettySize=auto;html=1;exitX=0.5;exitY=1;exitDx=0;exitDy=0;entryX=0.5;entryY=0;entryDx=0;entryDy=0;strokeColor=#FFFFFF;" parent="1" source="bCVefZA46M03gYBTneSI-7" target="bCVefZA46M03gYBTneSI-8" edge="1">
          <mxGeometry relative="1" as="geometry" />
        </mxCell>
        <mxCell id="bCVefZA46M03gYBTneSI-7" value="スロットタイム * スロット数&lt;br&gt;1500[Mbyte] / trans_rate(送信時間)&lt;br&gt;をcurrent_timeに加算" style="rounded=0;whiteSpace=wrap;html=1;fillColor=none;strokeColor=#FFFFFF;" parent="1" vertex="1">
          <mxGeometry x="440" y="400" width="200" height="60" as="geometry" />
        </mxCell>
        <mxCell id="bCVefZA46M03gYBTneSI-16" style="edgeStyle=orthogonalEdgeStyle;rounded=0;orthogonalLoop=1;jettySize=auto;html=1;exitX=0.5;exitY=1;exitDx=0;exitDy=0;strokeColor=#FFFFFF;" parent="1" source="bCVefZA46M03gYBTneSI-8" edge="1">
          <mxGeometry relative="1" as="geometry">
            <mxPoint x="260" y="840" as="targetPoint" />
            <Array as="points">
              <mxPoint x="540" y="770" />
              <mxPoint x="261" y="770" />
            </Array>
          </mxGeometry>
        </mxCell>
        <mxCell id="bCVefZA46M03gYBTneSI-8" value="同じスロット数のユーザーの&lt;div&gt;再送処理&lt;/div&gt;&lt;div&gt;再送回数n += 1&lt;/div&gt;" style="rounded=0;whiteSpace=wrap;html=1;fillColor=none;strokeColor=#FFFFFF;" parent="1" vertex="1">
          <mxGeometry x="440" y="520" width="200" height="60" as="geometry" />
        </mxCell>
        <mxCell id="bCVefZA46M03gYBTneSI-18" style="edgeStyle=orthogonalEdgeStyle;rounded=0;orthogonalLoop=1;jettySize=auto;html=1;exitX=0.5;exitY=1;exitDx=0;exitDy=0;entryX=0.5;entryY=0;entryDx=0;entryDy=0;strokeColor=#FFFFFF;" parent="1" source="bCVefZA46M03gYBTneSI-17" target="bCVefZA46M03gYBTneSI-1" edge="1">
          <mxGeometry relative="1" as="geometry" />
        </mxCell>
        <mxCell id="bCVefZA46M03gYBTneSI-17" value="LOOP" style="rounded=1;whiteSpace=wrap;html=1;fillColor=none;strokeColor=#FFFFFF;" parent="1" vertex="1">
          <mxGeometry x="160" y="20" width="200" height="60" as="geometry" />
        </mxCell>
        <mxCell id="bCVefZA46M03gYBTneSI-19" value="LOOP" style="rounded=1;whiteSpace=wrap;html=1;fillColor=none;strokeColor=#FFFFFF;" parent="1" vertex="1">
          <mxGeometry x="160" y="840" width="200" height="60" as="geometry" />
        </mxCell>
      </root>
    </mxGraphModel>
  </diagram>
</mxfile>
